<?xml version="1.0" standalone="no"?><!DOCTYPE svg PUBLIC "-//W3C//DTD SVG 1.1//EN" "http://www.w3.org/Graphics/SVG/1.1/DTD/svg11.dtd"><svg t="1695913176344" class="icon" viewBox="0 0 1024 1024" version="1.1" xmlns="http://www.w3.org/2000/svg" p-id="33626" xmlns:xlink="http://www.w3.org/1999/xlink" width="48" height="48"><path d="M809.152 403.2v298.752a118.848 118.848 0 0 1-118.88 118.848h-19.808v89.664a49.536 49.536 0 0 1-99.04 0V820.8h-118.88v89.664a49.536 49.536 0 1 1-99.008 0l-0.032-89.664h-19.776a118.848 118.848 0 0 1-118.88-118.848V403.2h594.304z m-663.616 19.904c27.328 0 49.504 22.176 49.504 49.536v199.232a49.536 49.536 0 0 1-99.04 0V472.64c0-27.36 22.176-49.536 49.536-49.536z m732.928 0c27.36 0 49.536 22.176 49.536 49.536v199.232a49.536 49.536 0 1 1-99.04 0V472.64c0-27.36 22.176-49.536 49.504-49.536zM676.48 64l15.712 8.704-50.784 84.384c90.464 41.856 155.68 126.24 167.776 226.24H214.848c11.744-97.184 73.664-179.584 160.128-222.592l-52.96-88 15.744-8.736 53.664 89.184A307.84 307.84 0 0 1 512 128.8c39.872 0 77.92 7.52 112.704 21.152L676.48 64z m-309.76 181.824c-13.376 0-24.256 10.496-24.256 23.424 0 12.928 10.88 23.392 24.288 23.392 13.44 0 24.32-10.464 24.32-23.392a23.872 23.872 0 0 0-24.32-23.424z m288.544 0c-13.408 0-24.288 10.496-24.288 23.424 0 12.928 10.88 23.392 24.32 23.392 13.408 0 24.288-10.464 24.288-23.392a23.872 23.872 0 0 0-24.32-23.424z" fill="#99CC01" p-id="33627"></path></svg>