<?xml version="1.0" standalone="no"?><!DOCTYPE svg PUBLIC "-//W3C//DTD SVG 1.1//EN" "http://www.w3.org/Graphics/SVG/1.1/DTD/svg11.dtd"><svg t="1695898391635" class="icon" viewBox="0 0 1024 1024" version="1.1" xmlns="http://www.w3.org/2000/svg" p-id="6860" width="48" height="48" xmlns:xlink="http://www.w3.org/1999/xlink"><path d="M512 703.3c-41.8 0-75.6-34-75.6-75.6V396.3c0-41.6 33.8-75.6 75.6-75.6 20.2 0 39.1 7.8 53.5 22.1 14.3 14.3 22.1 33.3 22.1 53.5v231.5c0 20.2-7.8 39.1-22.1 53.5-14.4 14-33.3 22-53.5 22" fill="#FFFFFF" p-id="6861"></path><path d="M243.1 496c-30.6 0-55.2 24.8-55.2 55.2v231.5c0 30.6 24.8 55.2 55.2 55.4 30.6 0 55.2-24.8 55.2-55.4V551.1c0-30.3-24.8-55.1-55.2-55.1m593 11.4H297.3V487c0-83.4 45.5-160.9 119.9-206.9l-28.9-52.5c-3.6-6.1-4.4-14.1-2.4-21.2 2.2-7.1 7.1-13.4 13.6-16.8 4.1-2.4 8.8-3.6 13.4-3.6 10.2 0 19.7 5.6 24.6 14.6l30.4 55.2c31.4-11.4 64.4-17.3 98.7-17.3 34.8 0 68.1 5.8 99.4 17.5l30.1-55.4c4.9-9 14.3-14.6 24.6-14.6 4.6 0 9.2 1.2 13.4 3.4 6.8 3.6 11.7 9.7 13.6 17 2.2 7.3 1.2 14.8-2.4 21.4l-28.9 52.8c74.4 46 119.9 123.5 119.9 206.9v19.9h-0.2z" fill="#FFFFFF" p-id="6862"></path><path d="M633.8 453.3l38.7-70.5c1.9-3.6 0.7-8.5-2.9-10.5-3.9-1.9-8.5-0.7-10.5 3.2l-38.9 71.2c-32.8-14.6-69.5-22.9-108.2-22.6-38.7 0-75.4 8-107.9 22.6l-38.9-71c-1.9-3.6-6.8-5.1-10.5-3.2s-5.1 6.8-3.2 10.5l38.7 70.5C314.3 492.6 263 567 263 652.6h498c-0.3-85.8-51.3-160.2-127.2-199.3M398.5 562.2c-11.4 0-20.9-9.2-20.9-20.9 0-11.4 9.2-20.9 20.9-20.9 11.4 0 20.9 9.5 20.9 20.9s-9.3 20.9-20.9 20.9m226.8 0c-11.4 0-20.9-9.2-20.9-20.9 0-11.4 9.2-20.9 20.9-20.9 11.4 0 20.9 9.5 20.9 20.9s-9.5 20.9-20.9 20.9" fill="#FFFFFF" p-id="6863"></path><path d="M419.3 830c-41.6 0-75.6-33.8-75.6-75.6V652.3h-19.9c-21.2 0-41.1-8.3-56.2-23.1-15.1-15.1-23.3-34.8-23.1-56.2V194h535.1v379c0 43.8-35.5 79.3-79.3 79.3h-19.9v102.1c0 41.6-33.8 75.6-75.6 75.6-20.2 0-39.1-7.8-53.5-22.1-14.3-14.3-22.1-33.3-22.1-53.5V652.3h-34v102.1c-0.3 41.6-34.4 75.6-75.9 75.6" fill="#FFFFFF" p-id="6864"></path><path d="M189 588.3c0 32.6 26.3 59.1 59.1 59.1h40.1V770c0 30.4 24.8 55.2 55.2 55.2 30.6 0 55.2-24.8 55.2-55.4V647.2h74.6v122.5c0 30.4 24.8 55.2 55.2 55.2 30.6 0 55.2-24.8 55.2-55.2V647.2H624c32.6 0 59.1-26.5 59.1-59.1V229.2H188.8l0.2 359.1z m570.6-6.8c-41.6 0-75.6-33.8-75.6-75.6V274.5c0-41.8 33.8-75.6 75.6-75.6s75.6 33.8 75.6 75.6V506c0 41.7-33.8 75.5-75.6 75.5" fill="#FFFFFF" p-id="6865"></path><path d="M512 341.1c-30.6 0-55.2 24.8-55.2 55.2v231.5c0 30.6 24.8 55.2 55.2 55.2 30.6 0 55.2-24.8 55.2-55.2V396.3c0-30.4-24.6-55.2-55.2-55.2" fill="#FFFFFF" p-id="6866"></path><path d="M188.2 353.8c-30.6 0-55.2 24.8-55.2 55.2v231.5c0 30.6 24.8 55.2 55.2 55.2 30.6 0 55.2-24.8 55.2-55.2V409c-0.1-30.4-24.9-55.2-55.2-55.2m445.6-207.9l38.7-70.5c1.9-3.6 0.7-8.3-2.9-10.5-3.6-1.9-8.5-0.7-10.5 3.2l-38.9 71.2c-32.8-14.6-69.5-22.9-108.4-22.9-38.7 0-75.4 8-107.9 22.6L365 68c-1.9-3.6-6.8-5.1-10.5-3.2-3.6 1.9-5.1 6.8-3.2 10.5l38.7 70.5c-75.9 39.1-127.2 113.5-127.2 199.1h497.9c0-85.4-51-159.8-126.9-199m-235.3 109c-11.4 0-20.9-9.2-20.9-20.9 0-11.4 9.2-20.9 20.9-20.9 11.4 0 20.9 9.5 20.9 20.9 0 11.4-9.3 20.9-20.9 20.9m226.8 0c-11.4 0-20.9-9.2-20.9-20.9 0-11.4 9.2-20.9 20.9-20.9 11.4 0 20.9 9.5 20.9 20.9 0 11.4-9.5 20.9-20.9 20.9M264.7 364.3v358.9c0 32.6 26.3 59.1 59.1 59.1h40.1v122.5c0 30.4 24.8 55.2 55.2 55.2 30.6 0 55.2-24.8 55.2-55.4V782H549v122.5c0 30.4 24.8 55.2 55.2 55.2 30.6 0 55.2-24.8 55.2-55.2V782h40.4c32.6 0 59.1-26.3 59.1-59.1V364l-494.2 0.3zM891 409c0-30.6-24.8-55.2-55.2-55.2-30.6 0-55.2 24.8-55.2 55.2v231.5c0 30.6 24.8 55.2 55.2 55.2 30.6 0 55.2-24.8 55.2-55.2V409z" fill="#A4C439" p-id="6867"></path></svg>