<?xml version="1.0" standalone="no"?><!DOCTYPE svg PUBLIC "-//W3C//DTD SVG 1.1//EN" "http://www.w3.org/Graphics/SVG/1.1/DTD/svg11.dtd"><svg t="1695912653283" class="icon" viewBox="0 0 1024 1024" version="1.1" xmlns="http://www.w3.org/2000/svg" p-id="12533" data-spm-anchor-id="a313x.search_index.0.i17.66f43a81TIaJtN" xmlns:xlink="http://www.w3.org/1999/xlink" width="48" height="48"><path d="M849.15865577 853.58864534c-30.19331246-6.70962499-46.96737493-25.16109371-48.64478118-55.35440617-1.67740625-25.16109371 6.70962499-45.28996869 28.51590622-58.70921867 21.80628121-11.74184374 41.93515619-10.06443749 62.06403115 6.70962499 3.3548125-10.06443749 1.67740625-18.45146873 1.67740625-26.83849996v-28.5159062c0-11.74184374 3.3548125-15.09665623 15.09665623-13.41924998h11.74184374v171.09543725c0 5.03221875-1.67740625 6.70962499-6.70962499 6.70962499-21.80628121-1.67740625-41.93515619-1.67740625-63.74143742-1.67740625z m-21.80628122-62.06403117c0 23.48368747 11.74184374 36.90293745 33.54812495 36.90293745 20.12887497 0 33.54812495-13.41924998 33.54812496-35.22553119s-13.41924998-36.90293745-33.54812496-36.90293745c-20.12887497-1.67740625-33.54812495 13.41924998-33.54812495 35.22553119zM439.87153136 853.58864534c-33.54812495-11.74184374-48.64478119-28.5159062-50.32218743-57.03181242-1.67740625-23.48368747 6.70962499-43.61256244 28.5159062-57.03181242 21.80628121-11.74184374 41.93515619-10.06443749 63.74143741 6.70962499v-40.25774994-15.09665622c0-13.41924998 1.67740625-15.09665623 15.09665623-15.09665624 10.06443749 0 13.41924998 3.3548125 13.41924998 13.41924998v149.28915604c0 5.03221875 1.67740625 11.74184374-6.70962499 11.74184373-6.70962499 0-15.09665623 3.3548125-20.12887496-5.03221873-1.67740625-3.3548125-3.3548125-5.03221875-6.70962499-1.67740626-6.70962499 6.70962499-16.77406248 8.38703124-25.16109372 11.74184374-5.03221875-1.67740625-8.38703124-1.67740625-11.74184373-1.67740625z m43.61256244-62.06403117c0-21.80628121-13.41924998-36.90293745-33.54812497-36.90293744s-33.54812495 13.41924998-33.54812495 36.90293744c0 23.48368747 11.74184374 36.90293745 33.54812495 36.90293745s33.54812495-15.09665623 33.54812497-36.90293745zM168.13171923 853.58864534c-28.5159062-5.03221875-46.96737493-23.48368747-50.32218743-51.99959367-3.3548125-25.16109371 5.03221875-45.28996869 25.16109372-60.38662493 18.45146873-13.41924998 40.25774994-13.41924998 60.38662492 0 3.3548125 1.67740625 6.70962499 5.03221875 8.38703123-1.67740624 3.3548125-10.06443749 13.41924998-5.03221875 20.12887498-5.03221874 6.70962499 0 5.03221875 6.70962499 5.03221873 10.06443748v95.61215612c0 5.03221875 0 10.06443749-6.70962498 10.06443748s-15.09665623 3.3548125-18.45146873-5.03221873c-1.67740625-6.70962499-5.03221875-5.03221875-8.38703123-1.67740626-6.70962499 5.03221875-15.09665623 6.70962499-23.48368747 10.06443749h-11.74184374z m-23.48368745-62.06403117c0 21.80628121 11.74184374 36.90293745 33.54812495 36.90293745 20.12887497 0 35.22553119-15.09665623 35.22553119-35.22553119 0-20.12887497-15.09665623-36.90293745-33.54812495-36.90293745-21.80628121-1.67740625-35.22553119 13.41924998-35.22553119 35.22553119zM666.32137478 853.58864534c-26.83849996-5.03221875-45.28996869-18.45146873-53.67699992-46.96737493-8.38703124-30.19331246 11.74184374-63.74143742 41.93515619-72.12846865 33.54812495-8.38703124 67.0962499 8.38703124 75.48328114 40.25774995 10.06443749 33.54812495-8.38703124 65.41884365-40.25774994 75.48328113-3.3548125 1.67740625-8.38703124 1.67740625-11.74184374 3.3548125h-11.74184373z m6.70962499-95.61215611c-21.80628121 0-35.22553119 13.41924998-35.2255312 35.2255312 0 20.12887497 15.09665623 35.22553119 35.2255312 35.22553119 20.12887497 0 33.54812495-15.09665623 33.54812495-36.90293745 0-21.80628121-13.41924998-33.54812495-33.54812495-33.54812494zM263.74387535 789.84720793v-46.96737493c0-3.3548125 0-8.38703124 5.03221875-10.06443749 6.70962499 0 16.77406248-5.03221875 18.45146872 3.35481251 3.3548125 8.38703124 6.70962499 5.03221875 10.06443748 1.67740623 25.16109371-16.77406248 58.70921867-6.70962499 67.09624991 20.12887498 1.67740625 6.70962499 3.3548125 13.41924998 3.35481249 20.12887497V836.81458286c0 10.06443749-5.03221875 11.74184374-13.41924998 11.74184374s-13.41924998-1.67740625-13.41924998-11.74184374v-50.32218742c0-20.12887497-8.38703124-31.8707187-23.48368746-33.54812496-15.09665623-1.67740625-26.83849996 10.06443749-30.19331246 30.19331246-3.3548125 18.45146873-1.67740625 35.22553119-1.67740625 53.67699992 0 8.38703124-1.67740625 11.74184374-11.74184373 11.74184374-8.38703124 0-15.09665623-1.67740625-15.09665623-11.74184374 5.03221875-13.41924998 5.03221875-30.19331246 5.03221874-46.96737493zM563.99959368 749.58945799c6.70962499-10.06443749 16.77406248-16.77406248 28.51590621-16.77406248 8.38703124 0 11.74184374 3.3548125 11.74184373 11.74184373 0 6.70962499 3.3548125 15.09665623-10.06443749 15.09665623-20.12887497 0-30.19331246 11.74184374-30.19331245 31.8707187v46.96737494c0 8.38703124-1.67740625 13.41924998-11.74184374 13.41924999-8.38703124 0-13.41924998-1.67740625-13.41924998-13.41924999v-92.25734362c0-8.38703124 3.3548125-11.74184374 11.74184373-11.74184373 8.38703124 0 15.09665623 0 13.41924999 11.74184373-1.67740625 0 0 0 0 3.3548125zM780.38499962 791.52461417v46.96737494c0 8.38703124-3.3548125 11.74184374-11.74184373 11.74184373-8.38703124 0-15.09665623 0-15.09665623-11.74184373v-97.28956237c0-10.06443749 8.38703124-8.38703124 13.41924998-8.38703123 6.70962499 0 13.41924998-1.67740625 13.41924998 8.38703123v50.32218743zM783.73981211 692.55764558c0 10.06443749-6.70962499 16.77406248-16.77406247 16.77406246s-16.77406248-8.38703124-16.77406248-16.77406246 8.38703124-16.77406248 16.77406248-16.77406249c10.06443749-1.67740625 16.77406248 6.70962499 16.77406247 16.77406249z" p-id="12534" data-spm-anchor-id="a313x.search_index.0.i15.66f43a81TIaJtN" class="selected" fill="#08da6f"></path><path d="M694.837281 489.5914896c-18.45146873 0-33.54812495-15.09665623-33.54812496-33.54812495s15.09665623-33.54812495 33.54812496-33.54812494 33.54812495 15.09665623 33.54812495 33.54812494c1.67740625 18.45146873-13.41924998 33.54812495-33.54812495 33.54812495m-372.38418699 0c-18.45146873 0-33.54812495-15.09665623-33.54812495-33.54812495s15.09665623-33.54812495 33.54812495-33.54812494 33.54812495 15.09665623 33.54812497 33.54812494-15.09665623 33.54812495-33.54812497 33.54812495m385.80343696-202.96615596l67.09624991-117.41843733c3.3548125-8.38703124-1.67740625-16.77406248-8.38703124-18.45146873-5.03221875-1.67740625-10.06443749 0-15.09665624 1.67740626l-1.67740624 1.67740624-68.77365615 119.09584358c-110.70881234-48.64478119-236.51428091-48.64478119-347.22309326 0l-68.77365614-117.41843733c-5.03221875-6.70962499-15.09665623-6.70962499-20.12887499-1.67740625-3.3548125 3.3548125-5.03221875 8.38703124-5.03221873 13.41924999 0 0 0 1.67740625 1.67740624 1.67740624l67.09624991 117.41843733c-117.41843733 63.74143742-196.25653097 184.51468724-206.32096846 318.70718705H914.57749944c-11.74184374-134.19249981-88.90253113-254.96574964-206.32096847-318.70718705" fill="#3DDC84" p-id="12535" data-spm-anchor-id="a313x.search_index.0.i14.66f43a81TIaJtN" class=""></path></svg>