<?xml version="1.0" standalone="no"?><!DOCTYPE svg PUBLIC "-//W3C//DTD SVG 1.1//EN" "http://www.w3.org/Graphics/SVG/1.1/DTD/svg11.dtd"><svg t="1695912759679" class="icon" viewBox="0 0 1024 1024" version="1.1" xmlns="http://www.w3.org/2000/svg" p-id="15938" xmlns:xlink="http://www.w3.org/1999/xlink" width="48" height="48"><path d="M505.16982 246.575007c1.986902 0.993451 3.576423 3.377733 6.010378 3.377733s5.811688-0.794761 5.811688-2.980352-3.775113-4.619547-6.407759-5.811688a13.212897 13.212897 0 0 0-10.977632 0c-0.794761 0.39738-1.589521 1.390831-1.192141 2.185592 0.546398 2.433955 4.569874 2.036574 6.755466 3.228715z m-43.811184 3.377733c2.384282 0 4.023476-2.384282 6.010378-3.377733s6.209068-0.794761 7.003828-3.179043c0.39738-0.794761-0.39738-1.788212-1.192141-2.185592a13.212897 13.212897 0 0 0-10.977632 0c-2.582972 1.192141-6.805139 2.980353-6.407758 5.811688 0.19869 2.135919 3.576423 3.179043 5.612997 2.980353z m442.085645 557.574311a97.457532 97.457532 0 0 1-14.405038-39.390327 77.489169 77.489169 0 0 0-21.011486-44.70529 54.043728 54.043728 0 0 0-7.99728-5.811688 44.357582 44.357582 0 0 0-8.19597-4.023476 231.573402 231.573402 0 0 0-7.401209-158.207054 533.582472 533.582472 0 0 0-92.987003-149.017633 223.52645 223.52645 0 0 1-66.809572-144.050379C685.878537 170.774704 694.968612 0.000497 533.185135 0.000497 328.236217-0.396884 379.597628 206.787299 377.412036 270.368156a231.92111 231.92111 0 0 1-45.003326 129.148616 638.639904 638.639904 0 0 0-116.184081 193.375215 229.884536 229.884536 0 0 0-12.418136 106.59728c-13.014207 11.623375-22.799698 29.406146-33.18126 40.383779a85.883829 85.883829 0 0 1-33.97602 16.59063 61.89199 61.89199 0 0 0-37.006046 29.008766 51.212393 51.212393 0 0 0-5.612997 24.836272 157.312948 157.312948 0 0 0 2.384282 23.594458 103.567255 103.567255 0 0 1 1.589521 41.57592 80.966247 80.966247 0 0 0-4.420856 63.382167 53.696021 53.696021 0 0 0 40.185088 24.836272 422.514663 422.514663 0 0 1 118.568364 24.836272 167.545492 167.545492 0 0 0 111.812897 20.812796 72.472242 72.472242 0 0 0 51.808464-40.383778c24.836272 0 52.603225-10.778942 96.613099-13.212897 29.803527-2.384282 67.206953 10.580252 110.173704 8.19597a63.481512 63.481512 0 0 0 4.967254 13.411587 80.221159 80.221159 0 0 0 80.568867 45.996776 145.739245 145.739245 0 0 0 96.613099-55.782267 350.191438 350.191438 0 0 1 101.779044-64.574308 48.381058 48.381058 0 0 0 27.816624-36.608665 90.304686 90.304686 0 0 0-30.995667-59.607054z m-392.413101-632.927561a45.947104 45.947104 0 0 1 87.920404-0.745088 79.476071 79.476071 0 0 1-8.59335 80.81723 247.319599 247.319599 0 0 0-25.18398-9.934509 35.764232 35.764232 0 0 0 7.798589-9.189421c9.586801-23.594459-0.39738-53.994056-18.180151-54.639798-14.603728-0.993451-27.816625 21.607557-23.594459 45.996776a142.460857 142.460857 0 0 0-25.978741-8.792041 79.476071 79.476071 0 0 1 5.811688-43.612494z m-81.462973-22.998388c20.216726 0 41.57592 28.412695 38.198187 67.008263a71.925844 71.925844 0 0 0-20.415416 9.18942c2.384282-17.782771-6.606448-40.185088-19.223274-39.191637-16.78932 1.390831-19.620655 42.420353-3.576424 56.179648 1.986902 1.589521 3.775113-0.39738-11.822065 10.977632-31.144685-29.157784-20.961814-104.163326 16.838992-104.163326zM402.397326 273.199491c12.418136-9.189421 27.220554-19.869018 28.214005-21.011486A79.774106 79.774106 0 0 1 486.393598 223.526947a96.215719 96.215719 0 0 1 51.808464 17.782771 334.99164 334.99164 0 0 0 45.202015 18.577531c16.78932 7.003829 27.419245 19.421965 21.011487 36.409975a69.541562 69.541562 0 0 1-45.400706 36.211285c-22.203627 7.202519-39.738036 31.989119-76.396373 29.803527a55.682922 55.682922 0 0 1-19.223275-4.222167c-15.994559-7.003829-24.389219-20.812796-39.986398-29.803526a58.216222 58.216222 0 0 1-29.406146-30.598288 21.557884 21.557884 0 0 1 8.39466-24.836272z m6.606448 667.946705c-5.414307 70.187305-87.771386 68.796474-150.607155 36.012595-59.607053-31.591738-137.195568-13.014207-152.991437-43.811185a69.541562 69.541562 0 0 1 4.967255-52.801914v-0.397381a107.441714 107.441714 0 0 0-1.192141-47.784987 67.306298 67.306298 0 0 1 1.788211-39.986399 45.748413 45.748413 0 0 1 29.803527-22.601007 89.907305 89.907305 0 0 0 39.191638-19.869018c10.977632-11.375013 18.974912-25.780051 28.611385-36.012595a36.161612 36.161612 0 0 1 35.416524-13.808967 69.938943 69.938943 0 0 1 43.811185 31.989118l39.191637 71.180757c18.974912 39.688363 86.181865 96.662771 82.009371 137.692293zM406.172439 889.139042a429.220456 429.220456 0 0 0-28.810076-39.191638 32.535517 32.535517 0 0 0 33.37995-17.782771 56.179648 56.179648 0 0 0-14.901763-49.672544 293.962118 293.962118 0 0 0-76.595064-64.971688 108.087457 108.087457 0 0 1-49.175819-59.607053 135.407356 135.407356 0 0 1-0.59607-70.385996 415.908214 415.908214 0 0 1 54.639799-118.369673c4.619547-3.377733 1.589521 6.407758-17.385391 41.575919-16.98801 32.187809-48.778439 106.59728-4.967254 164.76383a345.373201 345.373201 0 0 1 27.617934-122.98922 741.660761 741.660761 0 0 0 78.333603-225.712042c2.185592 1.589521 9.189421 6.407758 12.418136 8.19597a232.467508 232.467508 0 0 1 25.18398 20.614106 73.267003 73.267003 0 0 0 84.791033 2.384282 220.59577 220.59577 0 0 1 31.790429-17.981461 85.436776 85.436776 0 0 0 44.70529-29.803526 1033.188924 1033.188924 0 0 0 74.508816 191.388313 450.033252 450.033252 0 0 1 47.188917 129.148616 79.476071 79.476071 0 0 1 21.806247 2.781662 174.598994 174.598994 0 0 0-46.592846-169.780757c-9.388111-9.189421-9.934509-13.212897-4.967255-13.014206a246.773201 246.773201 0 0 1 70.385996 117.972293 151.10388 151.10388 0 0 1 0.794761 71.379446c32.783879 13.610277 71.776827 35.813905 61.395264 69.541562h-8.39466c6.407758-20.216726-7.798589-35.217834-45.599395-52.205844-39.191638-17.1867-71.975517-17.1867-76.595064 24.836272a69.988615 69.988615 0 0 0-42.817733 54.639799 441.489575 441.489575 0 0 0-8.792041 79.774107 312.93703 312.93703 0 0 1-13.610277 58.017531 197.249674 197.249674 0 0 1-229.139447 14.454711z m514.756578-22.998388c-1.788212 33.57864-82.406751 39.738036-126.366953 92.987003a133.519799 133.519799 0 0 1-87.175316 51.013703 65.418741 65.418741 0 0 1-67.405643-38.595567 110.918792 110.918792 0 0 1 2.185592-72.571587 495.632648 495.632648 0 0 0 19.869018-81.21461 450.033252 450.033252 0 0 1 8.39466-77.389825 60.451487 60.451487 0 0 1 27.419245-42.17199c0.596071-0.39738 1.390831-0.596071 1.986902-0.993451a61.29592 61.29592 0 0 0 37.602116 59.010983 93.781764 93.781764 0 0 0 76.793753-32.585189 56.626701 56.626701 0 0 1 45.202016 10.182871c19.869018 16.98801 14.206348 60.600504 34.17471 83.201512 21.160504 23.147406 27.965643 38.943275 27.3199 49.126147zM410.195915 297.39002c4.023476 3.775113 9.388111 8.990731 15.994559 14.206348a88.466802 88.466802 0 0 0 54.639799 21.210176 141.765442 141.765442 0 0 0 63.580857-21.607556 177.827709 177.827709 0 0 0 29.803527-20.812797c7.798589-6.805139 11.822066-12.616826 6.209068-13.212896s-4.967254 4.967254-12.020756 10.182871c-8.79204 6.407758-19.421965 14.901763-27.816625 19.620655a136.251789 136.251789 0 0 1-59.607053 20.415416 80.171487 80.171487 0 0 1-49.672545-19.421965c-6.209068-4.967254-11.375013-9.934509-15.398488-13.808967-2.980353-2.781662-3.775113-9.189421-8.593351-9.934509-2.781662 0-3.576423 7.401209 3.377733 13.014207z" fill="#99A3B4" p-id="15939"></path></svg>