<?xml version="1.0" standalone="no"?><!DOCTYPE svg PUBLIC "-//W3C//DTD SVG 1.1//EN" "http://www.w3.org/Graphics/SVG/1.1/DTD/svg11.dtd"><svg t="1695913258111" class="icon" viewBox="0 0 1024 1024" version="1.1" xmlns="http://www.w3.org/2000/svg" p-id="2493" xmlns:xlink="http://www.w3.org/1999/xlink" width="48" height="48"><path d="M557.597 148.521a54.603 54.603 0 0 0-20.9 25.886 63.578 63.578 0 0 0 1.67 41.757 69.25 69.25 0 0 0 24.667 35.198 45.12 45.12 0 0 0 20.162 7.808 36.75 36.75 0 0 0 21.18-3.681 40.876 40.876 0 0 0 17.571-19.2 70.837 70.837 0 0 0 5.791-25.793 87.129 87.129 0 0 0-4.188-33.401 56.092 56.092 0 0 0-21.636-28.8 42.254 42.254 0 0 0-17.085-6.399 36.448 36.448 0 0 0-18.109 2.017 45.305 45.305 0 0 0-9.185 5.023" fill="#FFFFFF" p-id="2494"></path><path d="M873.57 600.998a468.41 468.41 0 0 0-26.336-91.578 262.727 262.727 0 0 0-32.7-61.883c-13.762-18.303-31.103-33.724-44.578-52.252-7.102-9.6-13.117-20.352-20.51-29.854a846.445 846.445 0 0 1-8.801-18.62c-8.888-19.358-16.962-39.198-27.52-57.598a185.116 185.116 0 0 0-5.15-8.54c-1.341-17.725-3.2-35.424-4.162-53.18a500.337 500.337 0 0 0-8.924-106.235 172.941 172.941 0 0 0-21.119-47.42 162.686 162.686 0 0 0-41.276-44.48A159.313 159.313 0 0 0 541.106 0.083a142.96 142.96 0 0 0-69.276 16 124.749 124.749 0 0 0-52.058 54.203 179.51 179.51 0 0 0-16.573 73.786c-0.834 24.959 1.475 49.918 2.402 74.908 0.962 25.947 0.445 51.996 2.59 77.882 0.702 8.35 1.664 16.67 1.628 25.056 0 4.162-0.256 8.381-0.322 12.544l-0.323 0.896a531.895 531.895 0 0 1-37.436 55.257 2415.978 2415.978 0 0 1-28.799 35.936 217.263 217.263 0 0 0-31.578 46.56 332.52 332.52 0 0 0-13.757 45.049l-0.354 1.28a350.055 350.055 0 0 1-19.936 51.197c-0.737 1.542-1.505 3.2-2.243 4.608a905.486 905.486 0 0 1-14.975 29.403l-5.985 11.233a182.275 182.275 0 0 0-10.014 20.858 69.028 69.028 0 0 0-3.712 13.28 70.197 70.197 0 0 0 1.792 28.8c0.61 2.365 1.31 4.669 2.114 6.973a151.08 151.08 0 0 0 8.704 20.095c1.536 2.975 3.2 5.918 4.766 8.832l1.44 2.109a293.4 293.4 0 0 0 4.924 8.227l0.195 0.323a237.07 237.07 0 0 0 6.016 9.052l0.291 0.42a645.015 645.015 0 0 0 6.4 8.729 231.507 231.507 0 0 0 43.964 87.579c-3.2 5.601-6.113 11.264-9.344 16.793a254.116 254.116 0 0 0-27.77 52.544 63.168 63.168 0 0 0-2.114 29.44 42.238 42.238 0 0 0 14.525 25.306 44.005 44.005 0 0 0 17.566 8.125 78.313 78.313 0 0 0 19.389 1.7 315.645 315.645 0 0 0 72.537-14.305 808.215 808.215 0 0 1 42.776-9.983 254.914 254.914 0 0 1 45.468-6.205c3.774 0 7.552 0 11.295-0.384a211.23 211.23 0 0 0 31.323 1.152l3.84-0.22c2.718 0.322 5.442 0.48 8.16 0.64 18.37 1.049 36.735 2.846 54.91 5.6a534.09 534.09 0 0 1 47.65 9.406 363.904 363.904 0 0 0 74.55 14.304 80.975 80.975 0 0 0 19.91-1.572 44.194 44.194 0 0 0 18.037-8.253 42.295 42.295 0 0 0 14.56-25.343 62.973 62.973 0 0 0-2.17-29.5 244.552 244.552 0 0 0-28.287-52.375c-4.03-6.79-7.777-13.732-11.775-20.48a363.131 363.131 0 0 0 45.085-62.614 61.463 61.463 0 0 0 22.783-2.883 95.515 95.515 0 0 0 47.993-35.997 54.853 54.853 0 0 0 8.032-16.42 108.765 108.765 0 0 0 15.355-39.1 195.581 195.581 0 0 0-1.705-69.536z" fill="#020204" p-id="2495"></path><path d="M447.204 287.006a39.683 39.683 0 0 0-7.137 15.068 79.874 79.874 0 0 0-2.079 16.64 147.173 147.173 0 0 1-2.785 33.34 102.565 102.565 0 0 1-17.248 31.327 190.077 190.077 0 0 0-30.176 54.137 96.047 96.047 0 0 0-3.487 37.313 394.859 394.859 0 0 0-34.748 62.81 343.359 343.359 0 0 0-28.256 104.694 267.263 267.263 0 0 0 18.815 130.616 214.007 214.007 0 0 0 55.74 77.657 190.733 190.733 0 0 0 40.732 27.038 182.582 182.582 0 0 0 163.603-1.603 318.082 318.082 0 0 0 69.435-54.879 241.854 241.854 0 0 0 35.198-40 224.452 224.452 0 0 0 29.403-97.656 318.558 318.558 0 0 0-18.78-176.525 194.844 194.844 0 0 0-35.198-50.589 277.221 277.221 0 0 0-22.399-75.322c-7.935-17.213-17.602-33.627-24.959-51.198-3.01-7.167-5.632-14.525-8.99-21.534a64.576 64.576 0 0 0-13.122-19.199 54.065 54.065 0 0 0-20.51-11.903 89.279 89.279 0 0 0-23.49-4.035c-15.999-0.798-31.998 1.28-47.803 0.64-12.8-0.512-25.307-2.718-37.979-1.981a58.545 58.545 0 0 0-18.559 3.901 37.39 37.39 0 0 0-15.262 11.038m5.16-138.28a25.87 25.87 0 0 0-15.999 7.137 36.1 36.1 0 0 0-9.307 15.042 91.06 91.06 0 0 0-2.079 35.454 104.579 104.579 0 0 0 5.601 31.743 41.44 41.44 0 0 0 8.606 13.568 29.623 29.623 0 0 0 13.757 8.125 27.826 27.826 0 0 0 14.976-0.543 32.47 32.47 0 0 0 12.8-7.808 43.134 43.134 0 0 0 10.879-19.004 75.358 75.358 0 0 0 2.529-21.918 91.388 91.388 0 0 0-4.224-27.263 61.386 61.386 0 0 0-13.951-23.679 39.51 39.51 0 0 0-10.685-8.002 26.331 26.331 0 0 0-12.959-2.847m105.33-0.005a54.603 54.603 0 0 0-20.9 25.886 63.578 63.578 0 0 0 1.67 41.757 69.25 69.25 0 0 0 24.667 35.198 45.12 45.12 0 0 0 20.162 7.808 36.75 36.75 0 0 0 21.18-3.681 40.876 40.876 0 0 0 17.571-19.2 70.837 70.837 0 0 0 5.791-25.793 87.129 87.129 0 0 0-4.188-33.401 56.092 56.092 0 0 0-21.636-28.8 42.254 42.254 0 0 0-17.085-6.399 36.448 36.448 0 0 0-18.109 2.017 45.305 45.305 0 0 0-9.185 5.023" fill="#FFFFFF" p-id="2496"></path><path d="M579.039 176.552a21.513 21.513 0 0 0-9.861 3.2 25.927 25.927 0 0 0-7.485 7.295 37.656 37.656 0 0 0-5.985 19.84 41.895 41.895 0 0 0 2.109 15.518 29.336 29.336 0 0 0 8.74 12.8 25.24 25.24 0 0 0 14.78 5.759 24.76 24.76 0 0 0 15.232-4.352 27.314 27.314 0 0 0 8.386-9.6 35.674 35.674 0 0 0 3.809-12.226 37.712 37.712 0 0 0-3.584-22.076 30.908 30.908 0 0 0-16.45-14.878 23.254 23.254 0 0 0-9.6-1.505" fill="#020204" p-id="2497"></path><path d="M452.324 148.521a25.87 25.87 0 0 0-16 7.137 36.1 36.1 0 0 0-9.307 15.042 91.06 91.06 0 0 0-2.079 35.454 104.579 104.579 0 0 0 5.601 31.743 41.44 41.44 0 0 0 8.606 13.568 29.623 29.623 0 0 0 13.757 8.125 27.826 27.826 0 0 0 14.976-0.543 32.47 32.47 0 0 0 12.8-7.808 43.134 43.134 0 0 0 10.879-19.004 75.358 75.358 0 0 0 2.529-21.918 91.388 91.388 0 0 0-4.224-27.263 61.386 61.386 0 0 0-13.951-23.679 39.51 39.51 0 0 0-10.685-8.002 26.331 26.331 0 0 0-12.959-2.847" fill="#FFFFFF" p-id="2498"></path><path d="M437.958 197.794a44.926 44.926 0 0 0 1.28 22.399 37.618 37.618 0 0 0 7.935 12.8 26.235 26.235 0 0 0 7.746 6.015 14.387 14.387 0 0 0 9.6 1.214 14.156 14.156 0 0 0 7.424-4.992 24.44 24.44 0 0 0 4.065-8.095 44.998 44.998 0 0 0-0.42-26.459 34.472 34.472 0 0 0-10.112-16.444 20.018 20.018 0 0 0-8.191-4.286 14.284 14.284 0 0 0-9.282 0.738 15.75 15.75 0 0 0-7.168 7.234 32.94 32.94 0 0 0-2.975 9.886" fill="#020204" p-id="2499"></path><path d="M423.975 291.066a9.109 9.109 0 0 0 1.086 2.816 12.764 12.764 0 0 0 3.742 3.773c1.408 1.024 2.914 1.854 4.383 2.786a79.234 79.234 0 0 1 19.808 19.199 124.35 124.35 0 0 0 24.38 27.677 51.403 51.403 0 0 0 24.381 8.735 79.782 79.782 0 0 0 30.335-3.523 107.167 107.167 0 0 0 26.014-11.422 271.81 271.81 0 0 1 45.146-29.597c3.712-1.342 7.552-2.335 11.105-3.999a17.484 17.484 0 0 0 8.637-7.741 37.2 37.2 0 0 0 2.114-11.105c0.574-3.999 1.854-7.9 2.56-11.868a19.977 19.977 0 0 0-0.926-11.939 15.431 15.431 0 0 0-7.01-6.973 23.981 23.981 0 0 0-9.599-2.401 143.098 143.098 0 0 0-19.998 1.986c-8.857 0.799-17.76-0.322-26.654 0-11.033 0.323-21.948 2.816-32.986 3.2-12.605 0.61-25.18-1.346-37.79-1.858a78.03 78.03 0 0 0-16.352 0.768 37.774 37.774 0 0 0-15.165 5.857 145.356 145.356 0 0 0-11.903 10.623 30.299 30.299 0 0 1-6.559 4.51 16.947 16.947 0 0 1-7.71 1.823 12.492 12.492 0 0 0-4.096 0 5.54 5.54 0 0 0-2.14 1.342 12.441 12.441 0 0 0-1.603 2.017 35.158 35.158 0 0 0-2.913 5.217" fill="#D99A03" p-id="2500"></path><path d="M451.75 263.168a194.885 194.885 0 0 0-13.024 8.576 16.035 16.035 0 0 0-5.601 5.663 13.306 13.306 0 0 0-1.024 5.565c0.107 1.9 0.107 3.799 0 5.693-0.16 1.28-0.512 2.56-0.579 3.87a6.4 6.4 0 0 0 0.195 1.92 4.045 4.045 0 0 0 0.926 1.695 4.9 4.9 0 0 0 2.176 1.25c0.799 0.255 1.628 0.383 2.463 0.573a24.232 24.232 0 0 1 10.337 6.016c3.01 2.687 5.698 5.729 8.831 8.289a49.667 49.667 0 0 0 30.622 9.922 138.065 138.065 0 0 0 32.382-4.51A195.847 195.847 0 0 0 544 310.874a109.4 109.4 0 0 0 33.79-20.126 115.86 115.86 0 0 1 13.788-11.422c4.48-2.816 9.6-4.675 14.049-7.363 0.41-0.235 0.809-0.501 1.177-0.798s0.681-0.666 0.901-1.086a3.195 3.195 0 0 0 0-2.401 6.45 6.45 0 0 0-0.993-2.017 14.51 14.51 0 0 0-1.884-1.92 30.156 30.156 0 0 0-17.469-6.052c-6.4-0.481-12.58 0-18.754-1.182a122.593 122.593 0 0 1-16.956-4.926 123.628 123.628 0 0 0-18.022-4.382 119.035 119.035 0 0 0-43.354 1.06 126.674 126.674 0 0 0-38.399 14.975" fill="#604405" p-id="2501"></path><path d="M450.342 248.034a79.49 79.49 0 0 0-17.15 15.646 37.026 37.026 0 0 0-6.785 11.392 86.171 86.171 0 0 0-2.206 10.24 19.046 19.046 0 0 0-0.574 3.87c0 0.65 0.098 1.295 0.287 1.92a4.362 4.362 0 0 0 0.993 1.695 5.424 5.424 0 0 0 2.883 1.438c1.054 0.226 2.14 0.256 3.2 0.384a30.156 30.156 0 0 1 13.372 5.694c4.035 2.785 7.742 5.985 11.873 8.606a62.031 62.031 0 0 0 30.811 8.765 137.717 137.717 0 0 0 32.158-3.2 144.716 144.716 0 0 0 24.8-6.973 148.832 148.832 0 0 0 33.79-20.126 141.393 141.393 0 0 0 13.788-11.422c1.47-1.408 2.882-2.883 4.45-4.163a16.05 16.05 0 0 1 5.247-3.04 19.455 19.455 0 0 1 9.18-0.16c2.268 0.502 4.587 0.769 6.911 0.8a10.25 10.25 0 0 0 3.426-0.543 6.963 6.963 0 0 0 2.815-2.018 6.721 6.721 0 0 0 1.47-4.254 8.632 8.632 0 0 0-1.244-4.352 14.888 14.888 0 0 0-7.04-5.662 69.373 69.373 0 0 0-12.032-3.523 172.69 172.69 0 0 1-36.191-13.22c-5.724-2.846-11.29-5.98-16.957-9.02a99.923 99.923 0 0 0-18.017-8.003 70.812 70.812 0 0 0-43.36 1.951 92.832 92.832 0 0 0-39.964 27.355" fill="#F5BD0C" p-id="2502"></path><path d="M522.531 230.463c0.763 2.494 4.767 2.079 7.07 3.2 2.3 1.121 3.651 3.2 5.92 3.395s5.57-0.768 5.856-2.914c0.384-2.846-3.773-4.674-6.4-5.693a13.67 13.67 0 0 0-11.104-0.225c-0.773 0.445-1.603 1.408-1.342 2.237z m-38.178-1.408c-2.974-0.962-7.869 4.255-6.4 6.943 0.45 0.737 1.792 1.664 2.688 1.182 0.896-0.48 2.494-3.455 3.968-4.48 1.121-0.732 0.896-3.291-0.256-3.645z" fill="#CD8907" p-id="2503"></path><path d="M959.388 848.499a56.712 56.712 0 0 1-9.405 15.84 102.6 102.6 0 0 1-33.059 23.449 655.292 655.292 0 0 0-61.53 32.48 252.984 252.984 0 0 0-36.289 29.213 290.584 290.584 0 0 1-29.5 26.782 84.86 84.86 0 0 1-36.734 15.549 88.06 88.06 0 0 1-47.773-7.23 57.331 57.331 0 0 1-26.587-20.801 62.492 62.492 0 0 1-7.454-33.15 345.162 345.162 0 0 1 7.265-60.383c2.938-16.604 5.76-33.243 7.551-50.041a515.256 515.256 0 0 0 1.06-91.926 69.68 69.68 0 0 1 0-15.39 19.552 19.552 0 0 1 19.9-18.242 71.575 71.575 0 0 1 14.177 1.178 299.737 299.737 0 0 1 33.054 5.729c6.814 1.792 13.47 4.188 20.29 6.051a93.15 93.15 0 0 0 34.968 3.2 270.55 270.55 0 0 1 37.502-5.888 55.52 55.52 0 0 1 15.324 2.688 32.649 32.649 0 0 1 13.762 7.68 30.135 30.135 0 0 1 6.4 10.234 62.142 62.142 0 0 1 3.906 17.536c0.174 5.355 0.635 10.695 1.377 15.999a52.222 52.222 0 0 0 11.775 23.167 149.851 149.851 0 0 0 19.005 17.791c6.692 5.632 13.409 11.202 20.607 16 3.39 2.298 6.881 4.48 10.081 7.004a31.753 31.753 0 0 1 8.161 9.087 22.594 22.594 0 0 1 2.268 15.994" fill="#F5BD0C" p-id="2504"></path><path d="M959.388 848.499a56.712 56.712 0 0 1-9.405 15.84 102.6 102.6 0 0 1-33.059 23.449 655.292 655.292 0 0 0-61.53 32.48 252.984 252.984 0 0 0-36.289 29.213 290.584 290.584 0 0 1-29.5 26.782 84.86 84.86 0 0 1-36.734 15.549 88.06 88.06 0 0 1-47.773-7.23 57.331 57.331 0 0 1-26.587-20.801 62.492 62.492 0 0 1-7.454-33.15 345.162 345.162 0 0 1 7.265-60.383c2.938-16.604 5.76-33.243 7.551-50.041a515.256 515.256 0 0 0 1.06-91.926 69.68 69.68 0 0 1 0-15.39 19.552 19.552 0 0 1 19.9-18.242 71.575 71.575 0 0 1 14.177 1.178 299.737 299.737 0 0 1 33.054 5.729c6.814 1.792 13.47 4.188 20.29 6.051a93.15 93.15 0 0 0 34.968 3.2 270.55 270.55 0 0 1 37.502-5.888 55.52 55.52 0 0 1 15.324 2.688 32.649 32.649 0 0 1 13.762 7.68 30.135 30.135 0 0 1 6.4 10.234 62.142 62.142 0 0 1 3.906 17.536c0.174 5.355 0.635 10.695 1.377 15.999a52.222 52.222 0 0 0 11.775 23.167 149.851 149.851 0 0 0 19.005 17.791c6.692 5.632 13.409 11.202 20.607 16 3.39 2.298 6.881 4.48 10.081 7.004a31.753 31.753 0 0 1 8.161 9.087 22.594 22.594 0 0 1 2.268 15.994M263.03 678.43a30.376 30.376 0 0 1 17.054-1.571 42.105 42.105 0 0 1 16 6.753 100.604 100.604 0 0 1 23.453 25.307c15.615 21.498 30.621 43.446 44.255 66.235 11.039 18.492 21.18 37.6 33.95 54.97 8.32 11.33 17.724 21.857 26.11 33.151a114.248 114.248 0 0 1 19.522 37.15 74.467 74.467 0 0 1-5.442 53.307 70.346 70.346 0 0 1-25.983 27.867 66.926 66.926 0 0 1-36.796 9.6 180.427 180.427 0 0 1-58.335-18.401c-38.685-15.42-80.729-20.249-120.596-32.25-12.257-3.68-24.32-8.063-36.638-11.458a108.36 108.36 0 0 1-16.224-5.18 28.077 28.077 0 0 1-12.8-10.752 24.319 24.319 0 0 1-3.2-12.8 39.56 39.56 0 0 1 2.591-12.8c3.005-8.258 7.838-15.743 11.105-23.904a100.348 100.348 0 0 0 5.565-42.36c-0.706-14.341-3.2-28.544-4.034-42.88-0.63-6.399-0.425-12.85 0.609-19.198a28.804 28.804 0 0 1 24.222-24.642 78.23 78.23 0 0 1 17.663-1.121 167.776 167.776 0 0 0 17.725 0 40.585 40.585 0 0 0 16.926-4.736 40.108 40.108 0 0 0 12.16-11.484 139.376 139.376 0 0 0 8.703-14.402 91.916 91.916 0 0 1 9.154-14.11 34.866 34.866 0 0 1 13.183-10.24" fill="#F5BD0C" p-id="2505"></path><path d="M263.03 678.43a30.376 30.376 0 0 1 17.054-1.572 42.105 42.105 0 0 1 16 6.753 100.604 100.604 0 0 1 23.453 25.307c15.615 21.498 30.621 43.446 44.255 66.235 11.039 18.492 21.18 37.6 33.95 54.97 8.32 11.33 17.724 21.857 26.11 33.151a114.248 114.248 0 0 1 19.522 37.15 74.467 74.467 0 0 1-5.442 53.307 70.346 70.346 0 0 1-25.983 27.867 66.926 66.926 0 0 1-36.796 9.6 180.427 180.427 0 0 1-58.335-18.401c-38.685-15.42-80.729-20.249-120.596-32.25-12.257-3.68-24.32-8.063-36.638-11.458a108.36 108.36 0 0 1-16.224-5.18 28.077 28.077 0 0 1-12.8-10.752 24.319 24.319 0 0 1-3.2-12.8 39.56 39.56 0 0 1 2.591-12.8c3.005-8.258 7.838-15.743 11.105-23.904a100.348 100.348 0 0 0 5.565-42.36c-0.706-14.341-3.2-28.544-4.034-42.88-0.63-6.399-0.425-12.85 0.609-19.198a28.804 28.804 0 0 1 24.222-24.642 78.23 78.23 0 0 1 17.663-1.121 167.776 167.776 0 0 0 17.725 0 40.585 40.585 0 0 0 16.926-4.736 40.108 40.108 0 0 0 12.16-11.484 139.376 139.376 0 0 0 8.703-14.402 91.916 91.916 0 0 1 9.154-14.11 34.866 34.866 0 0 1 13.183-10.24" fill="#F5BD0C" p-id="2506"></path><path d="M271.477 687.804a26.183 26.183 0 0 1 15.457-1.024 36.243 36.243 0 0 1 13.982 6.845 88.419 88.419 0 0 1 19.548 24.288c13.28 21.503 26.238 43.201 38.398 65.375a433.093 433.093 0 0 0 29.536 49.053c7.552 10.168 16.189 19.486 23.9 29.53a99.728 99.728 0 0 1 18.016 33.182 65.375 65.375 0 0 1-4.992 47.547 63.352 63.352 0 0 1-23.997 25.082 61.724 61.724 0 0 1-33.693 8.32 188.5 188.5 0 0 1-53.404-16.537c-33.755-12.262-70.392-13.89-104.95-23.459-12.416-3.353-24.51-7.869-36.991-11.002a112.605 112.605 0 0 1-16.384-4.736 26.556 26.556 0 0 1-13.025-10.562 23.116 23.116 0 0 1-2.815-12.221 38.194 38.194 0 0 1 2.718-12.354c3.006-7.905 7.741-15.068 10.782-22.973a88.624 88.624 0 0 0 4.322-37.855c-0.86-12.795-3.2-25.436-3.84-38.204a65.257 65.257 0 0 1 0.768-17.09 29.336 29.336 0 0 1 7.68-15.068 29.89 29.89 0 0 1 16.639-7.71 77.078 77.078 0 0 1 18.559 0c6.17 0.747 12.38 1.04 18.59 0.86a34.866 34.866 0 0 0 17.602-5.37 35.183 35.183 0 0 0 10.849-12.8 135.617 135.617 0 0 0 6.594-15.426 72.977 72.977 0 0 1 7.424-15.073 29.065 29.065 0 0 1 12.8-10.808" fill="#F5BD0C" p-id="2507"></path></svg>